<svg width="171" height="24" viewBox="0 0 171 24" fill="none" xmlns="http://www.w3.org/2000/svg">
<path d="M8.912 13.28H5.392V24H2.032C1.30667 24 0.826667 23.8827 0.592 23.648C0.378667 23.4133 0.272 22.9227 0.272 22.176V0.863998H4.24C4.58133 0.863998 4.85867 0.981332 5.072 1.216C5.28533 1.45067 5.392 1.76 5.392 2.144V10.24H8.912V13.28ZM10.192 0.863998H13.552C14.2773 0.863998 14.7467 0.981332 14.96 1.216C15.1947 1.45067 15.312 1.94133 15.312 2.688V24H11.344C11.0027 24 10.7253 23.8827 10.512 23.648C10.2987 23.4133 10.192 23.104 10.192 22.72V0.863998ZM25.177 8H28.281C29.0917 8 29.753 8.04267 30.265 8.128C30.777 8.192 31.225 8.352 31.609 8.608C31.993 8.864 32.281 9.152 32.473 9.472C32.665 9.77067 32.8143 10.2613 32.921 10.944C33.0917 11.904 33.177 13.248 33.177 14.976C33.177 16.704 33.1663 17.8773 33.145 18.496C33.1237 19.0933 33.081 19.7333 33.017 20.416C32.9743 21.0987 32.8783 21.6 32.729 21.92C32.601 22.24 32.4197 22.5707 32.185 22.912C31.9717 23.232 31.6837 23.456 31.321 23.584C30.5317 23.8613 29.5183 24 28.281 24H28.217V11.936C28.217 11.8933 28.217 11.7653 28.217 11.552C28.217 11.3387 28.2063 11.1573 28.185 11.008C28.0783 10.6027 27.6517 10.4 26.905 10.4H25.177V8ZM24.217 8V20.064C24.217 20.1067 24.217 20.2347 24.217 20.448C24.217 20.6613 24.2383 20.8427 24.281 20.992C24.3663 21.3973 24.7823 21.6 25.529 21.6H27.257V24H24.153C23.3423 24 22.681 23.968 22.169 23.904C21.657 23.8187 21.209 23.648 20.825 23.392C20.441 23.136 20.153 22.8587 19.961 22.56C19.769 22.24 19.609 21.7387 19.481 21.056C19.3317 20.096 19.257 18.752 19.257 17.024C19.257 15.296 19.2677 14.1333 19.289 13.536C19.3103 12.9173 19.3423 12.2667 19.385 11.584C19.449 10.9013 19.545 10.4 19.673 10.08C19.8223 9.76 20.0037 9.44 20.217 9.12C20.4517 8.77867 20.7503 8.544 21.113 8.416C21.9023 8.13867 22.9157 8 24.153 8H24.217ZM50.9405 8H55.2925C57.6178 8 58.7805 9.14133 58.7805 11.424V24H55.1325C54.7912 24 54.5138 23.8827 54.3005 23.648C54.0872 23.4133 53.9805 23.104 53.9805 22.72V11.36C53.9805 11.0187 53.8952 10.7733 53.7245 10.624C53.5752 10.4747 53.2232 10.4 52.6685 10.4H50.9405V8ZM36.6685 8H38.6205C39.5592 8 40.2632 8.23467 40.7325 8.704C41.2232 9.152 41.4685 9.73867 41.4685 10.464V24H37.8205C37.4792 24 37.2018 23.8827 36.9885 23.648C36.7752 23.4133 36.6685 23.104 36.6685 22.72V8ZM42.2685 8H46.6205C48.9458 8 50.1085 9.14133 50.1085 11.424V24H46.4605C46.1192 24 45.8418 23.8827 45.6285 23.648C45.4152 23.4133 45.3085 23.104 45.3085 22.72V11.36C45.3085 11.0187 45.2232 10.7733 45.0525 10.624C44.9032 10.4747 44.5512 10.4 43.9965 10.4H42.2685V8ZM67.1545 24H67.0905C64.9785 24 63.6772 23.6373 63.1865 22.912C62.9518 22.5707 62.7598 22.24 62.6105 21.92C62.4825 21.6 62.3972 21.0987 62.3545 20.416C62.2478 19.1787 62.1945 17.8027 62.1945 16.288C62.1945 14.7733 62.2052 13.6853 62.2265 13.024C62.2478 12.3413 62.3118 11.6587 62.4185 10.976C62.5465 10.272 62.7065 9.77067 62.8985 9.472C63.0905 9.152 63.3785 8.864 63.7625 8.608C64.1465 8.352 64.5945 8.192 65.1065 8.128C65.6185 8.04267 66.2798 8 67.0905 8H67.1545V24ZM75.6665 18.944V20.576C75.6665 22.8587 74.5038 24 72.1785 24H68.1465V21.6H69.8745C70.3225 21.6 70.5998 21.536 70.7065 21.408C70.8132 21.2587 70.8665 21.0027 70.8665 20.64V19.616C70.8665 19.296 70.8985 19.1147 70.9625 19.072C71.0478 19.0293 71.1012 19.008 71.1225 19.008C71.1438 18.9867 71.1972 18.976 71.2825 18.976C71.3892 18.9547 71.4638 18.944 71.5065 18.944C72.8932 18.944 74.2798 18.944 75.6665 18.944ZM68.1465 8H71.8585C73.3305 8 74.3332 8.288 74.8665 8.864C75.3998 9.44 75.6665 10.2933 75.6665 11.424V14.24C75.6665 16.16 74.6212 17.12 72.5305 17.12H67.8265V14.72H69.5545C70.0665 14.72 70.4078 14.656 70.5785 14.528C70.7705 14.4 70.8665 14.1547 70.8665 13.792V11.36C70.8665 10.9973 70.8132 10.752 70.7065 10.624C70.5998 10.4747 70.3225 10.4 69.8745 10.4H68.1465V8ZM83.8115 24H81.8595C80.9208 24 80.2062 23.776 79.7155 23.328C79.2462 22.8587 79.0115 22.2613 79.0115 21.536V3.328C79.0115 2.60267 79.2462 2.016 79.7155 1.568C80.2062 1.09867 80.9208 0.863998 81.8595 0.863998H83.8115V24ZM84.7715 8H87.8755C88.6862 8 89.3475 8.04267 89.8595 8.128C90.3715 8.192 90.8195 8.352 91.2035 8.608C91.5875 8.864 91.8755 9.152 92.0675 9.472C92.2595 9.77067 92.4195 10.2613 92.5475 10.944C92.6968 11.904 92.7715 13.248 92.7715 14.976C92.7715 16.704 92.7608 17.8773 92.7395 18.496C92.7182 19.0933 92.6755 19.7333 92.6115 20.416C92.5688 21.0987 92.4728 21.6 92.3235 21.92C92.1955 22.24 92.0142 22.5707 91.7795 22.912C91.5662 23.232 91.2782 23.456 90.9155 23.584C90.1262 23.8613 89.1128 24 87.8755 24H84.7715V21.6H86.4995C87.0542 21.6 87.4062 21.5253 87.5555 21.376C87.7262 21.2267 87.8115 20.992 87.8115 20.672V11.36C87.8115 11.0187 87.7262 10.7733 87.5555 10.624C87.4062 10.4747 87.0542 10.4 86.4995 10.4H84.7715V8ZM100.998 24H100.934C98.8223 24 97.5209 23.6373 97.0303 22.912C96.7956 22.5707 96.6036 22.24 96.4543 21.92C96.3263 21.6 96.2409 21.0987 96.1983 20.416C96.0916 19.1787 96.0383 17.8027 96.0383 16.288C96.0383 14.7733 96.0489 13.6853 96.0703 13.024C96.0916 12.3413 96.1556 11.6587 96.2623 10.976C96.3903 10.272 96.5503 9.77067 96.7423 9.472C96.9343 9.152 97.2223 8.864 97.6063 8.608C97.9903 8.352 98.4383 8.192 98.9503 8.128C99.4623 8.04267 100.124 8 100.934 8H100.998V24ZM109.51 18.944V20.576C109.51 22.8587 108.348 24 106.022 24H101.99V21.6H103.718C104.166 21.6 104.444 21.536 104.55 21.408C104.657 21.2587 104.71 21.0027 104.71 20.64V19.616C104.71 19.296 104.742 19.1147 104.806 19.072C104.892 19.0293 104.945 19.008 104.966 19.008C104.988 18.9867 105.041 18.976 105.126 18.976C105.233 18.9547 105.308 18.944 105.35 18.944C106.737 18.944 108.124 18.944 109.51 18.944ZM101.99 8H105.702C107.174 8 108.177 8.288 108.71 8.864C109.244 9.44 109.51 10.2933 109.51 11.424V14.24C109.51 16.16 108.465 17.12 106.374 17.12H101.67V14.72H103.398C103.91 14.72 104.252 14.656 104.422 14.528C104.614 14.4 104.71 14.1547 104.71 13.792V11.36C104.71 10.9973 104.657 10.752 104.55 10.624C104.444 10.4747 104.166 10.4 103.718 10.4H101.99V8ZM116.311 8H120.151C120.279 8 120.343 8.07467 120.343 8.224V10.176C120.343 10.3253 120.258 10.4 120.087 10.4H118.647C118.135 10.4 117.837 10.496 117.751 10.688C117.666 10.9653 117.623 11.2747 117.623 11.616V21.536C117.623 22.2613 117.378 22.8587 116.887 23.328C116.418 23.776 115.714 24 114.775 24H112.823V11.552C112.823 10.2933 113.101 9.38667 113.655 8.832C114.231 8.27733 115.117 8 116.311 8ZM126.218 8H130.058C130.186 8 130.25 8.07467 130.25 8.224V10.176C130.25 10.3253 130.164 10.4 129.994 10.4H128.554C128.042 10.4 127.743 10.496 127.658 10.688C127.572 10.9653 127.53 11.2747 127.53 11.616V21.536C127.53 22.2613 127.284 22.8587 126.794 23.328C126.324 23.776 125.62 24 124.682 24H122.73V11.552C122.73 10.2933 123.007 9.38667 123.562 8.832C124.138 8.27733 125.023 8 126.218 8ZM132.7 8.032H134.652C135.59 8.032 136.294 8.26667 136.764 8.736C137.254 9.184 137.5 9.77067 137.5 10.496V24H133.852C133.51 24 133.233 23.8827 133.02 23.648C132.806 23.4133 132.7 23.104 132.7 22.72V8.032ZM132.924 1.216C133.158 0.981332 133.841 0.863998 134.972 0.863998C136.102 0.863998 136.785 0.981332 137.02 1.216C137.254 1.42933 137.372 2.06933 137.372 3.136C137.372 4.20267 137.244 4.85333 136.988 5.088C136.753 5.32267 136.081 5.44 134.972 5.44C133.862 5.44 133.18 5.32267 132.924 5.088C132.689 4.85333 132.572 4.20267 132.572 3.136C132.572 2.06933 132.689 1.42933 132.924 1.216ZM145.905 24H145.841C143.729 24 142.427 23.6373 141.937 22.912C141.702 22.5707 141.51 22.24 141.361 21.92C141.233 21.6 141.147 21.0987 141.105 20.416C140.998 19.1787 140.945 17.8027 140.945 16.288C140.945 14.7733 140.955 13.6853 140.977 13.024C140.998 12.3413 141.062 11.6587 141.169 10.976C141.297 10.272 141.457 9.77067 141.649 9.472C141.841 9.152 142.129 8.864 142.513 8.608C142.897 8.352 143.345 8.192 143.857 8.128C144.369 8.04267 145.03 8 145.841 8H145.905V24ZM154.417 18.944V20.576C154.417 22.8587 153.254 24 150.929 24H146.897V21.6H148.625C149.073 21.6 149.35 21.536 149.457 21.408C149.563 21.2587 149.617 21.0027 149.617 20.64V19.616C149.617 19.296 149.649 19.1147 149.713 19.072C149.798 19.0293 149.851 19.008 149.873 19.008C149.894 18.9867 149.947 18.976 150.033 18.976C150.139 18.9547 150.214 18.944 150.257 18.944C151.643 18.944 153.03 18.944 154.417 18.944ZM146.897 8H150.609C152.081 8 153.083 8.288 153.617 8.864C154.15 9.44 154.417 10.2933 154.417 11.424V14.24C154.417 16.16 153.371 17.12 151.281 17.12H146.577V14.72H148.305C148.817 14.72 149.158 14.656 149.329 14.528C149.521 14.4 149.617 14.1547 149.617 13.792V11.36C149.617 10.9973 149.563 10.752 149.457 10.624C149.35 10.4747 149.073 10.4 148.625 10.4H146.897V8ZM162.178 8V13.856C162.178 14.2187 162.231 14.4747 162.338 14.624C162.444 14.752 162.722 14.816 163.17 14.816H164.962V17.216H160.866C158.54 17.216 157.378 16.0747 157.378 13.792V11.552C157.378 10.144 157.73 9.20533 158.434 8.736C159.159 8.24533 160.407 8 162.178 8ZM162.242 18.944V20.64C162.242 21.0027 162.295 21.2587 162.402 21.408C162.508 21.536 162.786 21.6 163.234 21.6H164.962V24H160.93C158.604 24 157.442 22.8587 157.442 20.576V19.616C157.442 19.296 157.474 19.1147 157.538 19.072C157.623 19.0293 157.676 19.008 157.698 19.008C157.719 18.9867 157.772 18.976 157.858 18.976C157.964 18.9547 158.028 18.944 158.049 18.944C159.457 18.944 160.855 18.944 162.242 18.944ZM165.922 14.816H167.234C169.559 14.816 170.722 15.9573 170.722 18.24V20.448C170.722 21.856 170.359 22.8053 169.634 23.296C168.93 23.7653 167.692 24 165.922 24V14.816ZM163.138 8H167.17C169.495 8 170.658 9.14133 170.658 11.424V13.088C169.228 13.088 168.14 13.088 167.394 13.088C166.647 13.088 166.263 13.088 166.242 13.088C166.22 13.0667 166.178 13.056 166.114 13.056C166.071 13.0347 166.039 13.0133 166.018 12.992C165.996 12.9707 165.975 12.9493 165.954 12.928C165.932 12.8853 165.922 12.8427 165.922 12.8C165.879 12.6293 165.858 12.5013 165.858 12.416V11.36C165.858 10.9973 165.804 10.752 165.698 10.624C165.591 10.4747 165.314 10.4 164.866 10.4H163.138V8Z" fill="#F1F528"/>
</svg>
